<svg xmlns="http://www.w3.org/2000/svg" width="195.464" height="27.865" viewBox="0 0 195.464 27.865">
  <g id="Group_1322" data-name="Group 1322" transform="translate(-0.077 -0.96)">
    <path id="Path_1" data-name="Path 1" d="M17.1,2.376v5.1H6.447v5.513h7.972v4.955H6.447v10.58H.077V2.376Zm12.81,26.45a11.583,11.583,0,0,1-5.513-1.3A9.705,9.705,0,0,1,20.561,23.8a11.251,11.251,0,0,1-1.378-5.662A10.941,10.941,0,0,1,20.6,12.508a9.572,9.572,0,0,1,3.874-3.763,11.583,11.583,0,0,1,5.513-1.3,11.583,11.583,0,0,1,5.513,1.3,9.572,9.572,0,0,1,3.874,3.763,10.941,10.941,0,0,1,1.416,5.625A10.919,10.919,0,0,1,39.337,23.8a9.58,9.58,0,0,1-3.912,3.725A11.583,11.583,0,0,1,29.912,28.825Zm0-5.513A4.091,4.091,0,0,0,33,21.971a5.281,5.281,0,0,0,1.3-3.837A5.377,5.377,0,0,0,33.041,14.3a3.975,3.975,0,0,0-3.055-1.341A4.016,4.016,0,0,0,26.894,14.3a5.4,5.4,0,0,0-1.229,3.837,5.591,5.591,0,0,0,1.192,3.837A3.975,3.975,0,0,0,29.912,23.312ZM50.539,11.2a8.227,8.227,0,0,1,2.794-2.682,7.1,7.1,0,0,1,3.725-1.006v6.743H55.308A5.3,5.3,0,0,0,51.732,15.3q-1.192,1.006-1.192,3.576v9.648h-6.37V7.74h6.37Zm8.3,6.892a12.587,12.587,0,0,1,1.192-5.625,9.158,9.158,0,0,1,3.316-3.725A8.607,8.607,0,0,1,68,7.442a8.065,8.065,0,0,1,3.725.857,6.793,6.793,0,0,1,2.682,2.31V.96h6.37V28.527h-6.37v-2.98a6.46,6.46,0,0,1-2.57,2.384A7.891,7.891,0,0,1,68,28.825a8.607,8.607,0,0,1-4.657-1.3,9.43,9.43,0,0,1-3.316-3.763A12.827,12.827,0,0,1,58.837,18.1Zm15.572.037a5.165,5.165,0,0,0-1.341-3.763,4.238,4.238,0,0,0-3.2-1.378,4.356,4.356,0,0,0-3.241,1.378,5.119,5.119,0,0,0-1.3,3.725,5.389,5.389,0,0,0,1.3,3.8,4.356,4.356,0,0,0,3.241,1.378,4.238,4.238,0,0,0,3.2-1.378A5.165,5.165,0,0,0,74.409,18.134Zm30.574-.335a16.261,16.261,0,0,1-.112,1.863H90.454a4.452,4.452,0,0,0,1.229,2.98A3.92,3.92,0,0,0,94.4,23.647a3.348,3.348,0,0,0,3.316-2.012h6.78a9.492,9.492,0,0,1-5.29,6.258,10.949,10.949,0,0,1-4.582.931,11.15,11.15,0,0,1-5.439-1.3A9.274,9.274,0,0,1,85.462,23.8a11.5,11.5,0,0,1-1.341-5.662,11.767,11.767,0,0,1,1.3-5.662A9.274,9.274,0,0,1,89.15,8.746a11.228,11.228,0,0,1,5.476-1.3,11.116,11.116,0,0,1,5.364,1.267,8.974,8.974,0,0,1,3.651,3.614A10.846,10.846,0,0,1,104.983,17.8Zm-6.519-1.676a3.275,3.275,0,0,0-1.118-2.608,4.475,4.475,0,0,0-5.513-.037,4.178,4.178,0,0,0-1.341,2.645ZM114.713.96V28.527h-6.37V.96Z" transform="translate(0 0)" fill="#036"/>
    <path id="Path_2" data-name="Path 2" d="M327.32,10.795a8.527,8.527,0,0,1-1.043,4.172,7.707,7.707,0,0,1-3.2,3.017,11.279,11.279,0,0,1-5.364,1.155H313.76v9.388h-6.37V2.376h10.319A11.743,11.743,0,0,1,323,3.456a7.425,7.425,0,0,1,3.241,2.98A8.662,8.662,0,0,1,327.32,10.795Zm-10.1,3.278a3.8,3.8,0,0,0,2.719-.857,3.2,3.2,0,0,0,.894-2.421,3.2,3.2,0,0,0-.894-2.421,3.8,3.8,0,0,0-2.719-.857H313.76v6.556ZM337.007.96V28.527h-6.37V.96Zm25.143,6.78V28.527h-6.37V25.7a7.112,7.112,0,0,1-2.645,2.235,8.048,8.048,0,0,1-3.651.82,8.335,8.335,0,0,1-4.21-1.043,7.277,7.277,0,0,1-2.831-3.092,10.458,10.458,0,0,1-1.006-4.731V7.74h6.333V19.028a4.562,4.562,0,0,0,1.08,3.241,3.788,3.788,0,0,0,2.906,1.155,3.835,3.835,0,0,0,2.943-1.155,4.562,4.562,0,0,0,1.08-3.241V7.74Zm13.032,21.085a11.948,11.948,0,0,1-4.843-.931,8.344,8.344,0,0,1-3.353-2.533,6.808,6.808,0,0,1-1.378-3.651h6.3a2.42,2.42,0,0,0,1.006,1.751,3.559,3.559,0,0,0,2.2.671,3.145,3.145,0,0,0,1.825-.447,1.462,1.462,0,0,0,.671-1.229,1.363,1.363,0,0,0-.931-1.3,17.286,17.286,0,0,0-3.017-.969,30.7,30.7,0,0,1-3.725-1.08,6.688,6.688,0,0,1-2.57-1.825,5.048,5.048,0,0,1-1.08-3.39,5.715,5.715,0,0,1,.969-3.241A6.737,6.737,0,0,1,370.152,8.3a11.259,11.259,0,0,1,4.582-.857,9.074,9.074,0,0,1,6.147,1.937,7.506,7.506,0,0,1,2.608,5.141H377.6a2.511,2.511,0,0,0-.969-1.714,3.217,3.217,0,0,0-2.086-.633,2.818,2.818,0,0,0-1.714.447,1.321,1.321,0,0,0-.6,1.155,1.432,1.432,0,0,0,.931,1.341,15.773,15.773,0,0,0,2.98.894,29.809,29.809,0,0,1,3.763,1.192,6.121,6.121,0,0,1,2.533,1.863,5.136,5.136,0,0,1,1.155,3.427,5.484,5.484,0,0,1-1.043,3.278,6.692,6.692,0,0,1-2.943,2.235A11.119,11.119,0,0,1,375.182,28.825Z" transform="translate(-188.06 0)" fill="#ffc200"/>
  </g>
</svg>
